<?xml version="1.0" encoding="UTF-8"?>
<svg version="1.1" xmlns="http://www.w3.org/2000/svg" width="378" height="139">
<path d="M0 0 C45.21 0 90.42 0 137 0 C137 45.87 137 91.74 137 139 C91.79 139 46.58 139 0 139 C0 93.13 0 47.26 0 0 Z " fill="#2BC494" transform="translate(121,0)"/>
<path d="M0 0 C14.43806074 -0.02255622 28.87610985 -0.04091812 43.31418419 -0.05181217 C50.01773076 -0.0569728 56.72126563 -0.06401108 63.42480469 -0.07543945 C69.88921865 -0.08627293 76.35362042 -0.09227782 82.81804276 -0.09487724 C85.28929461 -0.09673066 87.76054576 -0.10034967 90.23179245 -0.10573006 C93.68237521 -0.11294657 97.13290705 -0.11399068 100.58349609 -0.11352539 C101.61423752 -0.11712067 102.64497894 -0.12071594 103.70695496 -0.12442017 C104.64367538 -0.1230455 105.58039581 -0.12167084 106.54550171 -0.12025452 C107.36221029 -0.12117631 108.17891888 -0.1220981 109.02037621 -0.12304783 C111 0 111 0 113 1 C113 28.39 113 55.78 113 84 C110.62443706 85.18778147 109.19575841 85.12324578 106.54550171 85.12025452 C105.60878128 85.12162918 104.67206085 85.12300385 103.70695496 85.12442017 C102.67621353 85.12082489 101.64547211 85.11722961 100.58349609 85.11352539 C99.50055771 85.11367142 98.41761932 85.11381744 97.30186462 85.1139679 C93.70903547 85.11326915 90.11625764 85.10547852 86.5234375 85.09765625 C84.03764881 85.09579193 81.55185975 85.0943681 79.06607056 85.09336853 C73.18353603 85.08993565 67.30102057 85.08204773 61.41849387 85.07201904 C54.06545754 85.05975492 46.71241893 85.05437626 39.359375 85.04882812 C26.23957207 85.03809268 13.11979132 85.02049672 0 85 C0 74.44 0 63.88 0 53 C20.79 53 41.58 53 63 53 C63 46.07 63 39.14 63 32 C42.21 32 21.42 32 0 32 C0 21.44 0 10.88 0 0 Z " fill="#27D59A" transform="translate(265,54)"/>
<path d="M0 0 C0.99 0 1.98 0 3 0 C3 45.87 3 91.74 3 139 C-40.89 139 -84.78 139 -130 139 C-129.34 138.67 -128.68 138.34 -128 138 C-127.70738281 137.236875 -127.41476563 136.47375 -127.11328125 135.6875 C-125.87717405 132.70349384 -124.5173258 131.20954798 -122.1875 129 C-121.10662109 127.96166016 -121.10662109 127.96166016 -120.00390625 126.90234375 C-119.01197266 125.96068359 -119.01197266 125.96068359 -118 125 C-117.21625 124.195625 -116.4325 123.39125 -115.625 122.5625 C-113.05933327 120.05792057 -110.45315043 117.61281842 -107.8125 115.1875 C-106.95269531 114.39730469 -106.09289062 113.60710937 -105.20703125 112.79296875 C-103 111 -103 111 -101 111 C-100.896875 110.360625 -100.79375 109.72125 -100.6875 109.0625 C-100.460625 108.381875 -100.23375 107.70125 -100 107 C-98.515 106.505 -98.515 106.505 -97 106 C-97 101.38 -97 96.76 -97 92 C-93 94 -93 94 -91.07421875 96.78515625 C-87.36986561 102.10431024 -83.98458019 105.45369894 -77.40673828 106.65771484 C-68.32409046 107.59337544 -59.10976053 107.33839125 -50 107 C-50 106.34 -50 105.68 -50 105 C-48.5390625 103.59765625 -48.5390625 103.59765625 -46.625 102.0625 C-44.16098476 100.08013383 -42.79533563 98.69300345 -41 96 C-40.34 96 -39.68 96 -39 96 C-38.5359375 95.0409375 -38.5359375 95.0409375 -38.0625 94.0625 C-37 92 -37 92 -36 91 C-35.87814857 89.65016252 -35.82233169 88.29425299 -35.79467773 86.93920898 C-35.77473251 86.07839218 -35.75478729 85.21757538 -35.73423767 84.33067322 C-35.71752518 83.39526199 -35.70081268 82.45985077 -35.68359375 81.49609375 C-35.6524221 80.06657127 -35.6524221 80.06657127 -35.62062073 78.60816956 C-35.55501823 75.5513559 -35.49619082 72.49445344 -35.4375 69.4375 C-35.39432494 67.37043337 -35.35071099 65.30337586 -35.30664062 63.23632812 C-35.19932599 58.15764405 -35.09808909 53.0788703 -35 48 C-35.66 48 -36.32 48 -37 48 C-38.69140625 46.35546875 -38.69140625 46.35546875 -40.5625 44.1875 C-41.49255859 43.12595703 -41.49255859 43.12595703 -42.44140625 42.04296875 C-44 40 -44 40 -45 37 C-45.66 37 -46.32 37 -47 37 C-47 36.34 -47 35.68 -47 35 C-46.28714844 35.00902344 -45.57429688 35.01804688 -44.83984375 35.02734375 C-39.52024888 34.86267258 -35.96384086 34.66796739 -32.1875 30.6875 C-31.64738281 30.05457031 -31.10726562 29.42164062 -30.55078125 28.76953125 C-28.38816514 26.30186097 -25.73591017 24.78428924 -23 23 C-21.30915168 21.35787104 -19.64626322 19.68682333 -18 18 C-16.00341988 15.97577388 -14.00153995 13.95682013 -12 11.9375 C-11.23816406 11.1630957 -11.23816406 11.1630957 -10.4609375 10.37304688 C-8.11271819 8.00977488 -5.79707284 5.83794012 -3.1875 3.75390625 C-0.91822439 2.18484057 -0.91822439 2.18484057 0 0 Z " fill="#298D75" transform="translate(255,0)"/>
<path d="M0 0 C1.48216302 0.06540148 2.96460918 0.12468325 4.44726562 0.17773438 C8.03335875 0.31911661 11.60853799 0.54216632 15.1875 0.8125 C15.6825 7.2475 15.6825 7.2475 16.1875 13.8125 C21.1375 13.8125 26.0875 13.8125 31.1875 13.8125 C31.28649561 19.84475939 31.35902907 25.87654427 31.40722656 31.90942383 C31.42732199 33.96093993 31.45460324 36.01239889 31.48925781 38.0637207 C31.53786669 41.01528025 31.56048952 43.96608148 31.578125 46.91796875 C31.59877014 47.83273483 31.61941528 48.74750092 31.64068604 49.68998718 C31.64215675 53.87890451 31.59933309 56.16035919 29.31933594 59.77075195 C28.61583008 60.44452881 27.91232422 61.11830566 27.1875 61.8125 C26.3625 62.658125 25.5375 63.50375 24.6875 64.375 C23.8625 65.179375 23.0375 65.98375 22.1875 66.8125 C21.465625 67.575625 20.74375 68.33875 20 69.125 C18.1875 70.8125 18.1875 70.8125 16.1875 70.8125 C16.1875 71.4725 16.1875 72.1325 16.1875 72.8125 C-12.51774313 75.24333671 -12.51774313 75.24333671 -19.953125 69.765625 C-27.07915912 63.12034997 -29.9795875 57.34662678 -30.3671875 47.66796875 C-30.45944733 44.78016663 -30.53725641 41.89270252 -30.60205078 39.00415039 C-30.65848217 37.02018396 -30.74004212 35.03675433 -30.84814453 33.05493164 C-31.81305049 15.01361003 -31.81305049 15.01361003 -25.95368958 7.68640137 C-18.24477781 -0.325896 -10.5808082 -0.82402813 0 0 Z " fill="#47E9B2" transform="translate(188.8125,34.1875)"/>
<path d="M0 0 C14.43806074 -0.02255622 28.87610985 -0.04091812 43.31418419 -0.05181217 C50.01773076 -0.0569728 56.72126563 -0.06401108 63.42480469 -0.07543945 C69.88921865 -0.08627293 76.35362042 -0.09227782 82.81804276 -0.09487724 C85.28929461 -0.09673066 87.76054576 -0.10034967 90.23179245 -0.10573006 C93.68237521 -0.11294657 97.13290705 -0.11399068 100.58349609 -0.11352539 C101.61423752 -0.11712067 102.64497894 -0.12071594 103.70695496 -0.12442017 C104.64367538 -0.1230455 105.58039581 -0.12167084 106.54550171 -0.12025452 C107.36221029 -0.12117631 108.17891888 -0.1220981 109.02037621 -0.12304783 C111 0 111 0 113 1 C113 28.39 113 55.78 113 84 C110.62443706 85.18778147 109.19575841 85.12324578 106.54550171 85.12025452 C105.60878128 85.12162918 104.67206085 85.12300385 103.70695496 85.12442017 C102.67621353 85.12082489 101.64547211 85.11722961 100.58349609 85.11352539 C99.50055771 85.11367142 98.41761932 85.11381744 97.30186462 85.1139679 C93.70903547 85.11326915 90.11625764 85.10547852 86.5234375 85.09765625 C84.03764881 85.09579193 81.55185975 85.0943681 79.06607056 85.09336853 C73.18353603 85.08993565 67.30102057 85.08204773 61.41849387 85.07201904 C54.06545754 85.05975492 46.71241893 85.05437626 39.359375 85.04882812 C26.23957207 85.03809268 13.11979132 85.02049672 0 85 C0 74.44 0 63.88 0 53 C20.79 53 41.58 53 63 53 C63 46.07 63 39.14 63 32 C42.21 32 21.42 32 0 32 C0 21.44 0 10.88 0 0 Z M9 7 C9 12.94 9 18.88 9 25 C15.06072667 25.14528742 21.12151504 25.28754462 27.18237305 25.42724609 C29.23512594 25.47495847 31.28786126 25.52343446 33.34057617 25.57275391 C46.56485846 25.88985194 59.77168314 26.05154726 73 26 C73 37.22 73 48.44 73 60 C51.88 60 30.76 60 9 60 C9 65.94 9 71.88 9 78 C40.02 78 71.04 78 103 78 C103 54.57 103 31.14 103 7 C71.98 7 40.96 7 9 7 Z " fill="#049F5E" transform="translate(265,54)"/>
<path d="M0 0 C37.29 0 74.58 0 113 0 C113 10.56 113 21.12 113 32 C75.71 32 38.42 32 0 32 C0 21.44 0 10.88 0 0 Z " fill="#03A261" transform="translate(265,0)"/>
<path d="M0 0 C36.96 0 73.92 0 112 0 C112 10.56 112 21.12 112 32 C75.04 32 38.08 32 0 32 C0 21.44 0 10.88 0 0 Z " fill="#018A4B" transform="translate(0,107)"/>
<path d="M0 0 C36.96 0 73.92 0 112 0 C112 10.56 112 21.12 112 32 C75.04 32 38.08 32 0 32 C0 21.44 0 10.88 0 0 Z " fill="#03A05F" transform="translate(0,54)"/>
<path d="M0 0 C36.96 0 73.92 0 112 0 C112 10.56 112 21.12 112 32 C75.04 32 38.08 32 0 32 C0 21.44 0 10.88 0 0 Z " fill="#04A262" transform="translate(0,0)"/>
<path d="M0 0 C4 2 4 2 5.92578125 4.78515625 C9.63013439 10.10431024 13.01541981 13.45369894 19.59326172 14.65771484 C28.67590954 15.59337544 37.89023947 15.33839125 47 15 C47 14.34 47 13.68 47 13 C48.4609375 11.59765625 48.4609375 11.59765625 50.375 10.0625 C52.83901524 8.08013383 54.20466437 6.69300345 56 4 C56.66 4 57.32 4 58 4 C58.33 3.01 58.66 2.02 59 1 C59.99 1 60.98 1 62 1 C61.979375 1.78503906 61.95875 2.57007812 61.9375 3.37890625 C61.94597096 9.62816825 61.94597096 9.62816825 64.6015625 15.07421875 C65.97345951 16.21040373 67.38069235 17.30498261 68.81640625 18.359375 C71.07871818 20.05914425 72.74371994 21.83890986 74.5625 24 C77.43246039 27.39898534 80.48260986 30.50004888 83.71484375 33.5546875 C85 35 85 35 85 37 C85.87398437 37.38478516 85.87398437 37.38478516 86.765625 37.77734375 C89.19710839 39.10785826 90.81735553 40.58443013 92.75 42.5625 C93.36359375 43.18253906 93.9771875 43.80257812 94.609375 44.44140625 C96 46 96 46 96 47 C53.43 47 10.86 47 -33 47 C-32.01 46.505 -32.01 46.505 -31 46 C-30.70738281 45.236875 -30.41476563 44.47375 -30.11328125 43.6875 C-28.87717405 40.70349384 -27.5173258 39.20954798 -25.1875 37 C-24.46691406 36.30777344 -23.74632812 35.61554688 -23.00390625 34.90234375 C-22.34261719 34.27457031 -21.68132812 33.64679688 -21 33 C-20.21625 32.195625 -19.4325 31.39125 -18.625 30.5625 C-16.05933327 28.05792057 -13.45315043 25.61281842 -10.8125 23.1875 C-9.95269531 22.39730469 -9.09289062 21.60710937 -8.20703125 20.79296875 C-6 19 -6 19 -4 19 C-3.896875 18.360625 -3.79375 17.72125 -3.6875 17.0625 C-3.3471875 16.0415625 -3.3471875 16.0415625 -3 15 C-2.01 14.67 -1.02 14.34 0 14 C0 9.38 0 4.76 0 0 Z " fill="#1B7056" transform="translate(158,92)"/>
<path d="M0 0 C9.57 0.33 19.14 0.66 29 1 C29 14.86 29 28.72 29 43 C33.95 43 38.9 43 44 43 C41.47608955 47.20651742 39.46793615 49.70123147 36 53 C35.278125 53.763125 34.55625 54.52625 33.8125 55.3125 C32 57 32 57 30 57 C30 57.66 30 58.32 30 59 C19.77 59 9.54 59 -1 59 C-2.04976964 55.85069107 -2.10131595 53.61185544 -2.0625 50.3125 C-2.05347656 49.31863281 -2.04445312 48.32476562 -2.03515625 47.30078125 C-2.02355469 46.54152344 -2.01195312 45.78226563 -2 45 C-4.97 44.67 -7.94 44.34 -11 44 C-11 43.67 -11 43.34 -11 43 C-7.37 43 -3.74 43 0 43 C0 28.81 0 14.62 0 0 Z " fill="#57FBC0" transform="translate(175,48)"/>
<path d="M0 0 C31.02 0 62.04 0 94 0 C94 6.27 94 12.54 94 19 C62.98 19 31.96 19 0 19 C0 12.73 0 6.46 0 0 Z " fill="#26D49A" transform="translate(8,113)"/>
<path d="M0 0 C31.02 0 62.04 0 94 0 C94 5.94 94 11.88 94 18 C62.98 18 31.96 18 0 18 C0 12.06 0 6.12 0 0 Z " fill="#26D69C" transform="translate(8,61)"/>
<path d="M0 0 C31.02 0 62.04 0 94 0 C94 5.94 94 11.88 94 18 C62.98 18 31.96 18 0 18 C0 12.06 0 6.12 0 0 Z " fill="#27D49A" transform="translate(8,7)"/>
<path d="M0 0 C30.69 0 61.38 0 93 0 C93.495 8.91 93.495 8.91 94 18 C62.98 18 31.96 18 0 18 C0 12.06 0 6.12 0 0 Z " fill="#27D59B" transform="translate(274,7)"/>
<path d="M0 0 C0 27.39 0 54.78 0 83 C-2.37556294 84.18778147 -3.80424159 84.12324578 -6.45449829 84.12025452 C-7.39121872 84.12162918 -8.32793915 84.12300385 -9.29304504 84.12442017 C-10.32378647 84.12082489 -11.35452789 84.11722961 -12.41650391 84.11352539 C-13.49944229 84.11367142 -14.58238068 84.11381744 -15.69813538 84.1139679 C-19.29096453 84.11326915 -22.88374236 84.10547852 -26.4765625 84.09765625 C-28.96235119 84.09579193 -31.44814025 84.0943681 -33.93392944 84.09336853 C-39.81646397 84.08993565 -45.69897943 84.08204773 -51.58150613 84.07201904 C-58.93454246 84.05975492 -66.28758107 84.05437626 -73.640625 84.04882812 C-86.76042793 84.03809268 -99.88020868 84.02049672 -113 84 C-113 73.44 -113 62.88 -113 52 C-111.35 52.33 -109.7 52.66 -108 53 C-107.67 54.32 -107.34 55.64 -107 57 C-106.34 57 -105.68 57 -105 57 C-105 63.93 -105 70.86 -105 78 C-73.65 78 -42.3 78 -10 78 C-10.27677829 54.9485193 -10.27677829 54.9485193 -10.63061523 31.89819336 C-10.66223145 27.42297363 -10.66223145 27.42297363 -10.66810608 25.32276917 C-10.67880146 23.86709076 -10.7033113 22.41147146 -10.73902893 20.95619202 C-11.06096491 7.13922535 -11.06096491 7.13922535 -6.64477539 2.48657227 C-4.09148224 0.37513715 -3.40438671 0 0 0 Z " fill="#018A4E" transform="translate(378,55)"/>
<path d="M0 0 C36.63 0 73.26 0 111 0 C105 7 105 7 103 8 C100.03920996 8.06396381 97.10376961 8.06568079 94.14404297 8.02172852 C93.22691528 8.01212097 92.3097876 8.00251343 91.36486816 7.99261475 C88.32389831 7.95955072 85.28306883 7.91924661 82.2421875 7.87890625 C80.13754781 7.85461237 78.03290288 7.83076845 75.92825317 7.80735779 C70.38138881 7.74444403 64.83461687 7.67539807 59.2878418 7.60510254 C53.63073953 7.53448487 47.97357159 7.46962864 42.31640625 7.40429688 C31.21086341 7.27519055 20.10542244 7.13907796 9 7 C9 12.94 9 18.88 9 25 C23.85 25 38.7 25 54 25 C54 25.33 54 25.66 54 26 C36.51 26 19.02 26 1 26 C1 4 1 4 2 3 C1.34 2.67 0.68 2.34 0 2 C0 1.34 0 0.68 0 0 Z " fill="#09B278" transform="translate(265,54)"/>
<path d="M0 0 C36.3 0 72.6 0 110 0 C104 7 104 7 103 8 C102.67 13.94 102.34 19.88 102 26 C70.32 26 38.64 26 6 26 C6 19.07 6 12.14 6 5 C5.01 4.67 4.02 4.34 3 4 C3 3.34 3 2.68 3 2 C2.01 2 1.02 2 0 2 C0 1.34 0 0.68 0 0 Z M7 7 C7 12.94 7 18.88 7 25 C38.02 25 69.04 25 101 25 C100.505 16.09 100.505 16.09 100 7 C69.31 7 38.62 7 7 7 Z " fill="#07B77F" transform="translate(267,0)"/>
<path d="M0 0 C36.96 0 73.92 0 112 0 C109 2 109 2 106.875 3 C104.82955462 3.85860158 104.82955462 3.85860158 104 6 C103.67 12.6 103.34 19.2 103 26 C71.32 26 39.64 26 7 26 C6.67 19.07 6.34 12.14 6 5 C4.02 3.68 2.04 2.36 0 1 C0 0.67 0 0.34 0 0 Z M8 7 C8 12.94 8 18.88 8 25 C39.02 25 70.04 25 102 25 C102 19.06 102 13.12 102 7 C70.98 7 39.96 7 8 7 Z " fill="#0BB47C" transform="translate(0,54)"/>
<path d="M0 0 C35.97 0 71.94 0 109 0 C109 0.66 109 1.32 109 2 C107.35 2.99 105.7 3.98 104 5 C103.67 11.93 103.34 18.86 103 26 C71.65 26 40.3 26 8 26 C8 25.67 8 25.34 8 25 C39.02 25 70.04 25 102 25 C102 19.06 102 13.12 102 7 C70.98 7 39.96 7 8 7 C7.67 6.34 7.34 5.68 7 5 C6.01 4.67 5.02 4.34 4 4 C4 3.34 4 2.68 4 2 C2.68 2 1.36 2 0 2 C0 1.34 0 0.68 0 0 Z " fill="#06B67E" transform="translate(0,0)"/>
<path d="M0 0 C0 27.06 0 54.12 0 82 C-2.31 81.67 -4.62 81.34 -7 81 C-7.33 79.68 -7.66 78.36 -8 77 C-8.66 77 -9.32 77 -10 77 C-10.16250826 67.99424197 -10.28672764 58.98899192 -10.3626852 49.98208523 C-10.39914996 45.79929594 -10.44857192 41.61751291 -10.52807617 37.43530273 C-10.60438441 33.39572902 -10.6460411 29.35712024 -10.6641407 25.31688118 C-10.67703101 23.77904131 -10.70220463 22.24125168 -10.7401104 20.703825 C-11.06080794 7.15215088 -11.06080794 7.15215088 -6.64477539 2.50024414 C-4.09158167 0.38061202 -3.40978901 0 0 0 Z " fill="#01A25E" transform="translate(378,55)"/>
<path d="M0 0 C35.97 0 71.94 0 109 0 C109 0.66 109 1.32 109 2 C107.35 2.33 105.7 2.66 104 3 C103.96241577 3.99181274 103.96241577 3.99181274 103.92407227 5.00366211 C103.80846898 7.98182305 103.68558246 10.9596392 103.5625 13.9375 C103.52318359 14.97841797 103.48386719 16.01933594 103.44335938 17.09179688 C103.40146484 18.08115234 103.35957031 19.07050781 103.31640625 20.08984375 C103.27974854 21.00628662 103.24309082 21.92272949 103.20532227 22.86694336 C103 25 103 25 102 26 C99.04753646 26.09526806 96.11851579 26.12552452 93.16577148 26.11352539 C92.23903625 26.11367142 91.31230103 26.11381744 90.35748291 26.1139679 C87.27866313 26.11326838 84.19990303 26.10547421 81.12109375 26.09765625 C78.99259982 26.09579221 76.86410547 26.09436824 74.73561096 26.09336853 C69.1213768 26.08954228 63.50716832 26.07971108 57.89294434 26.06866455 C52.16886747 26.05845273 46.44478647 26.0538714 40.72070312 26.04882812 C29.48045744 26.03808891 18.24023085 26.0210112 7 26 C7.00112793 25.38479492 7.00225586 24.76958984 7.00341797 24.13574219 C6.99128742 21.33938718 6.93362649 18.54575063 6.875 15.75 C6.87886719 14.29787109 6.87886719 14.29787109 6.8828125 12.81640625 C6.92811112 7.73520925 6.92811112 7.73520925 4.60644531 3.47070312 C2.78882708 2.23570566 2.78882708 2.23570566 0 1 C0 0.67 0 0.34 0 0 Z M8 6 C8 12.27 8 18.54 8 25 C39.02 25 70.04 25 102 25 C102 18.73 102 12.46 102 6 C70.98 6 39.96 6 8 6 Z " fill="#04B67B" transform="translate(0,107)"/>
<path d="M0 0 C0.33 0 0.66 0 1 0 C1 14.19 1 28.38 1 43 C-4.28 43 -9.56 43 -15 43 C-15.02464705 37.32169922 -15.04283462 31.64342931 -15.05493164 25.96508789 C-15.05997256 24.03181415 -15.06680519 22.09854424 -15.07543945 20.1652832 C-15.08751565 17.39273128 -15.09323057 14.62022959 -15.09765625 11.84765625 C-15.10281754 10.97786636 -15.10797882 10.10807648 -15.11329651 9.21192932 C-15.11349185 7.14094186 -15.06208168 5.07005676 -15 3 C-14 2 -14 2 -10.83984375 1.90234375 C-8.90818359 1.91974609 -8.90818359 1.91974609 -6.9375 1.9375 C-5.64714844 1.94652344 -4.35679687 1.95554688 -3.02734375 1.96484375 C-2.02832031 1.97644531 -1.02929688 1.98804688 0 2 C0 1.34 0 0.68 0 0 Z " fill="#2FC992" transform="translate(219,48)"/>
<path d="M0 0 C4.62 0 9.24 0 14 0 C14 13.53 14 27.06 14 41 C9.71 41 5.42 41 1 41 C-0.29487016 37.11538953 -0.1232604 33.44116044 -0.09765625 29.39453125 C-0.0962413 28.55532639 -0.09482635 27.71612152 -0.09336853 26.85148621 C-0.08777215 24.17178784 -0.07522035 21.4921731 -0.0625 18.8125 C-0.05748453 16.99544392 -0.05292171 15.17838652 -0.04882812 13.36132812 C-0.03780391 8.90751987 -0.02054178 4.45377411 0 0 Z " fill="#32DDA2" transform="translate(160,50)"/>
<path d="M0 0 C12.91742391 -0.09273557 25.83476844 -0.16378337 38.75245762 -0.20724869 C44.75086296 -0.2281113 50.74904032 -0.25640533 56.74731445 -0.30175781 C62.53745193 -0.34526195 68.32737029 -0.36914708 74.11765862 -0.37950897 C76.32523993 -0.38689206 78.53280944 -0.40130953 80.74029732 -0.42292023 C83.83567214 -0.45201424 86.93014491 -0.4559534 90.02563477 -0.45410156 C90.93554169 -0.46848267 91.84544861 -0.48286377 92.78292847 -0.49768066 C98.69391702 -0.45948907 102.11007267 0.64845142 107 4 C107 4.33 107 4.66 107 5 C70.37 5 33.74 5 -4 5 C-4 4.34 -4 3.68 -4 3 C-2.68 2.67 -1.36 2.34 0 2 C0 1.34 0 0.68 0 0 Z " fill="#08854C" transform="translate(4,27)"/>
<path d="M0 0 C0.7202558 0.00201133 1.44051161 0.00402266 2.18259335 0.00609493 C3.43373425 -0.00855053 3.43373425 -0.00855053 4.71015072 -0.02349186 C6.06234455 -0.00124043 6.06234455 -0.00124043 7.44185543 0.02146053 C8.40176388 0.01751781 9.36167233 0.0135751 10.35066891 0.0095129 C13.5188862 0.00280811 16.68565793 0.03195347 19.85372066 0.06223202 C22.0565936 0.06648266 24.25947101 0.06881075 26.46234798 0.06929684 C31.07665492 0.07546127 35.69047625 0.09815829 40.3046484 0.13376522 C46.22197911 0.1790639 52.13887026 0.19379265 58.05635834 0.19750214 C62.60394286 0.20192887 67.15143496 0.21722906 71.69897938 0.23637867 C73.88108656 0.24526304 76.06320361 0.25199199 78.24532413 0.25653934 C81.29277435 0.26557356 84.33982563 0.28795697 87.38716793 0.31442928 C88.29065472 0.31509396 89.1941415 0.31575863 90.12500668 0.31644344 C91.37191784 0.33140614 91.37191784 0.33140614 92.64401913 0.3466711 C93.36389791 0.35132161 94.08377668 0.35597212 94.82546997 0.36076355 C97.16709465 0.66158593 98.80680291 1.46489836 100.84981441 2.62082577 C100.84981441 3.28082577 100.84981441 3.94082577 100.84981441 4.62082577 C101.83981441 5.11582577 101.83981441 5.11582577 102.84981441 5.62082577 C66.54981441 5.62082577 30.24981441 5.62082577 -7.15018559 5.62082577 C-2.15018559 0.62082577 -2.15018559 0.62082577 0 0 Z " fill="#06874A" transform="translate(7.150185585021973,80.37917423248291)"/>
<path d="M0 0 C0.92874939 -0.00365067 1.85749878 -0.00730133 2.81439209 -0.01106262 C5.89093191 -0.01918207 8.96694725 -0.00554423 12.04345703 0.0090332 C14.17953491 0.00955173 16.31561327 0.00903432 18.45169067 0.00752258 C22.93238432 0.00761238 27.41289831 0.01805445 31.89355469 0.03613281 C37.63595076 0.05879268 43.37808357 0.05936972 49.12051201 0.05261517 C53.53344052 0.04927226 57.94630909 0.05591183 62.35922623 0.0657444 C64.47631644 0.06959318 66.59341332 0.07074595 68.71050644 0.06915855 C71.67171659 0.06878744 74.6325904 0.08142217 77.59375 0.09765625 C78.46873138 0.09517883 79.34371277 0.09270142 80.24520874 0.09014893 C84.58727439 0.12811367 87.97243385 0.34490899 91.92626953 2.37231445 C91.92626953 3.03231445 91.92626953 3.69231445 91.92626953 4.37231445 C93.57626953 4.37231445 95.22626953 4.37231445 96.92626953 4.37231445 C96.92626953 4.70231445 96.92626953 5.03231445 96.92626953 5.37231445 C59.63626953 5.37231445 22.34626953 5.37231445 -16.07373047 5.37231445 C-14.75373047 4.71231445 -13.43373047 4.05231445 -12.07373047 3.37231445 C-11.57814573 2.84378278 -11.082561 2.3152511 -10.57195854 1.77070332 C-7.79149237 -0.82447762 -3.61975499 -0.03147613 0 0 Z " fill="#078549" transform="translate(281.07373046875,26.627685546875)"/>
<path d="M0 0 C19.14 0 38.28 0 58 0 C57.01 0.33 56.02 0.66 55 1 C55 1.66 55 2.32 55 3 C54.01 3 53.02 3 52 3 C52 3.66 52 4.32 52 5 C57.94 5.33 63.88 5.66 70 6 C70 6.33 70 6.66 70 7 C48.88 7 27.76 7 6 7 C6 12.94 6 18.88 6 25 C37.02 25 68.04 25 100 25 C100 25.33 100 25.66 100 26 C68.65 26 37.3 26 5 26 C5 19.07 5 12.14 5 5 C4.34 5 3.68 5 3 5 C2.87625 4.360625 2.7525 3.72125 2.625 3.0625 C2.315625 2.0415625 2.315625 2.0415625 2 1 C1.34 0.67 0.68 0.34 0 0 Z " fill="#09B87D" transform="translate(268,107)"/>
<path d="M0 0 C13.53 0 27.06 0 41 0 C39.75120909 3.74637273 37.84204893 5.29013939 35 8 C34.278125 8.763125 33.55625 9.52625 32.8125 10.3125 C31 12 31 12 29 12 C29 12.66 29 13.32 29 14 C19.43 13.67 9.86 13.34 0 13 C0 8.71 0 4.42 0 0 Z " fill="#2BCB93" transform="translate(176,93)"/>
<path d="M0 0 C8.58 0 17.16 0 26 0 C26 3.96 26 7.92 26 12 C17.42 12 8.84 12 0 12 C0 8.04 0 4.08 0 0 Z " fill="#32DDA2" transform="translate(176,36)"/>
<path d="M0 0 C1.05833542 0.00424484 2.11667084 0.00848969 3.20707703 0.01286316 C6.57971887 0.02962513 9.9517582 0.06727363 13.32421875 0.10546875 C15.61392365 0.12051876 17.90363793 0.13420661 20.19335938 0.14648438 C25.79968395 0.17952052 31.40565829 0.22969558 37.01171875 0.29296875 C37.01171875 0.95296875 37.01171875 1.61296875 37.01171875 2.29296875 C38.99171875 2.62296875 40.97171875 2.95296875 43.01171875 3.29296875 C42.68171875 3.95296875 42.35171875 4.61296875 42.01171875 5.29296875 C22.21171875 5.29296875 2.41171875 5.29296875 -17.98828125 5.29296875 C-12.41566928 -0.27964322 -7.52352299 -0.11374785 0 0 Z " fill="#06864B" transform="translate(282.98828125,80.70703125)"/>
<path d="M0 0 C-1.50908449 3.84130598 -3.8029487 5.48803112 -7 8 C-7.639375 8.825 -8.27875 9.65 -8.9375 10.5 C-11.31703163 13.38428076 -13.87896686 14.96177428 -17 17 C-17.721875 17.9075 -18.44375 18.815 -19.1875 19.75 C-23.46637654 23.17310124 -27.71811448 22.41626068 -33 22 C-33 22.66 -33 23.32 -33 24 C-32.34 24 -31.68 24 -31 24 C-29.2734375 25.609375 -29.2734375 25.609375 -27.375 27.75 C-26.42753906 28.79414062 -26.42753906 28.79414062 -25.4609375 29.859375 C-24 32 -24 32 -24 36 C-25.97909398 36.02686553 -27.95828971 36.04633375 -29.9375 36.0625 C-31.03964844 36.07410156 -32.14179688 36.08570313 -33.27734375 36.09765625 C-36 36 -36 36 -37 35 C-37.23678716 32.30764224 -37.42198025 29.63501844 -37.5625 26.9375 C-37.60568359 26.17888672 -37.64886719 25.42027344 -37.69335938 24.63867188 C-37.79973633 22.75934562 -37.90039934 20.87969756 -38 19 C-37.03578125 19.01160156 -36.0715625 19.02320312 -35.078125 19.03515625 C-33.18320313 19.04869141 -33.18320313 19.04869141 -31.25 19.0625 C-29.37054688 19.07990234 -29.37054688 19.07990234 -27.453125 19.09765625 C-23.59979878 19.06976004 -23.59979878 19.06976004 -20 18 C-18.89099164 16.15769568 -18.89099164 16.15769568 -18 14 C-7.25910931 0 -7.25910931 0 0 0 Z " fill="#30C998" transform="translate(241,13)"/>
<path d="M0 0 C0.99 0 1.98 0 3 0 C3 10.56 3 21.12 3 32 C1.68 31.34 0.36 30.68 -1 30 C-2.07121094 29.51660156 -3.14242187 29.03320312 -4.24609375 28.53515625 C-7 26 -7 26 -7.43408203 23.75732422 C-7.47513338 20.9518021 -7.30970141 18.23219686 -7.0625 15.4375 C-7.01287109 14.47908203 -6.96324219 13.52066406 -6.91210938 12.53320312 C-6.43958326 5.5817107 -6.43958326 5.5817107 -4.64233398 3.20336914 C-3 2 -3 2 0 2 C0 1.34 0 0.68 0 0 Z " fill="#05A163" transform="translate(109,107)"/>
<path d="M0 0 C2.475 0.495 2.475 0.495 5 1 C5.33 2.32 5.66 3.64 6 5 C6.66 5 7.32 5 8 5 C8.11604679 8.4372166 8.18719508 11.87393086 8.25 15.3125 C8.30027344 16.77719727 8.30027344 16.77719727 8.3515625 18.27148438 C8.36445313 19.20927734 8.37734375 20.14707031 8.390625 21.11328125 C8.41157227 21.97735596 8.43251953 22.84143066 8.45410156 23.73168945 C8 26 8 26 6.10058594 27.80541992 C4 29 4 29 2 29 C2 29.99 2 30.98 2 32 C1.34 32 0.68 32 0 32 C0 21.44 0 10.88 0 0 Z " fill="#02A361" transform="translate(265,107)"/>
<path d="M0 0 C5 2 5 2 7 4 C7.45091675 7.45943333 7.32406422 10.95204434 7.3125 14.4375 C7.32861328 15.40494141 7.34472656 16.37238281 7.36132812 17.36914062 C7.36229492 18.76229492 7.36229492 18.76229492 7.36328125 20.18359375 C7.36775269 21.46061157 7.36775269 21.46061157 7.37231445 22.76342773 C6.91829866 25.49079735 6.22687595 26.39621825 4 28 C3.01 28 2.02 28 1 28 C0.67 28.99 0.34 29.98 0 31 C0 20.77 0 10.54 0 0 Z " fill="#01A261" transform="translate(0,108)"/>
<path d="M0 0 C1.1650499 2.3300998 1.1209358 3.67247077 1.11352539 6.26611328 C1.11344986 7.14687531 1.11337433 8.02763733 1.11329651 8.93508911 C1.10813522 9.88721283 1.10297394 10.83933655 1.09765625 11.8203125 C1.0962413 12.79410858 1.09482635 13.76790466 1.09336853 14.77120972 C1.08775973 17.88917073 1.07520573 21.0070606 1.0625 24.125 C1.05748613 26.23567605 1.05292303 28.34635322 1.04882812 30.45703125 C1.03778745 35.63804521 1.02104073 40.81901752 1 46 C0.34 46 -0.32 46 -1 46 C-0.96519531 46.98742187 -0.93039063 47.97484375 -0.89453125 48.9921875 C-0.86746094 50.27351563 -0.84039062 51.55484375 -0.8125 52.875 C-0.77769531 54.15117188 -0.74289063 55.42734375 -0.70703125 56.7421875 C-0.85205078 58.35480469 -0.85205078 58.35480469 -1 60 C-1.99 60.66 -2.98 61.32 -4 62 C-4.33 62.99 -4.66 63.98 -5 65 C-7.06640625 66.82421875 -7.06640625 66.82421875 -9.5625 68.6875 C-10.80193359 69.62142578 -10.80193359 69.62142578 -12.06640625 70.57421875 C-12.70449219 71.04472656 -13.34257812 71.51523438 -14 72 C-14.33 71.01 -14.66 70.02 -15 69 C-13.4218833 67.26407163 -12.24518176 66.10281816 -10.0625 65.1875 C-6.52920128 63.15317649 -4.78711821 59.57423642 -3 56 C-2.89097627 54.28503962 -2.84364205 52.56599223 -2.82641602 50.84765625 C-2.81292618 49.77314209 -2.79943634 48.69862793 -2.78553772 47.59155273 C-2.77509933 46.42696533 -2.76466095 45.26237793 -2.75390625 44.0625 C-2.72097851 41.61718378 -2.68776669 39.17187136 -2.65429688 36.7265625 C-2.6067785 32.85516905 -2.56233613 28.98379225 -2.52319336 25.11230469 C-2.48363018 21.38720648 -2.43205693 17.66242555 -2.37890625 13.9375 C-2.3704921 12.7729126 -2.36207794 11.6083252 -2.35340881 10.40844727 C-2.33676682 9.33393311 -2.32012482 8.25941895 -2.30297852 7.15234375 C-2.29267105 6.20351318 -2.28236359 5.25468262 -2.27174377 4.27709961 C-2 2 -2 2 0 0 Z " fill="#2AB789" transform="translate(159,46)"/>
<path d="M0 0 C4.62 0 9.24 0 14 0 C12.75120909 3.74637273 10.84204893 5.29013939 8 8 C7.278125 8.763125 6.55625 9.52625 5.8125 10.3125 C4 12 4 12 2 12 C2 12.66 2 13.32 2 14 C-7.57 13.67 -17.14 13.34 -27 13 C-27 12.67 -27 12.34 -27 12 C-18.09 12 -9.18 12 0 12 C0 8.04 0 4.08 0 0 Z " fill="#42D5A3" transform="translate(203,93)"/>
<path d="M0 0 C0.33 0 0.66 0 1 0 C1 45.87 1 91.74 1 139 C0.01 139 -0.98 139 -2 139 C-2.33 138.01 -2.66 137.02 -3 136 C-2.01 136 -1.02 136 0 136 C0 91.12 0 46.24 0 0 Z " fill="#3D8475" transform="translate(257,0)"/>
<path d="M0 0 C0 3.96 0 7.92 0 12 C-2.88415883 13.44207941 -5.41721528 13.09394887 -8.625 13.0625 C-9.81351563 13.05347656 -11.00203125 13.04445313 -12.2265625 13.03515625 C-13.14179688 13.02355469 -14.05703125 13.01195312 -15 13 C-4.84615385 0 -4.84615385 0 0 0 Z " fill="#31DCA4" transform="translate(174,36)"/>
<path d="M0 0 C-0.125 1.8125 -0.125 1.8125 -1 4 C-1.86625 4.4125 -2.7325 4.825 -3.625 5.25 C-7.56718185 7.29409429 -9.53117568 9.69122117 -12.32421875 13.06640625 C-14.32188427 15.37140493 -16.58261528 17.15141169 -19 19 C-19.33 19.66 -19.66 20.32 -20 21 C-21.65532623 22.01866229 -23.32260138 23.01810813 -25 24 C-25.66 24.66 -26.32 25.32 -27 26 C-29.125 25.625 -29.125 25.625 -31 25 C-27.23114954 21.60313997 -23.49476784 18.25836968 -19.3125 15.375 C-15.40562521 12.65602633 -12.28510297 9.35860984 -9.01953125 5.90625 C-8.31183594 5.1740625 -7.60414063 4.441875 -6.875 3.6875 C-6.21242187 2.99011719 -5.54984375 2.29273438 -4.8671875 1.57421875 C-3 0 -3 0 0 0 Z " fill="#1E9A77" transform="translate(248,10)"/>
<path d="M0 0 C4.29 0 8.58 0 13 0 C13 3.63 13 7.26 13 11 C10 11 10 11 7.51953125 8.84765625 C6.62621094 7.92855469 5.73289063 7.00945312 4.8125 6.0625 C3.91144531 5.14597656 3.01039063 4.22945313 2.08203125 3.28515625 C0 1 0 1 0 0 Z " fill="#3BDBA5" transform="translate(161,93)"/>
<path d="M0 0 C0 0.99 0 1.98 0 3 C0.8971875 3.433125 0.8971875 3.433125 1.8125 3.875 C4 5 4 5 7 7 C0.73 7 -5.54 7 -12 7 C-11.34 6.67 -10.68 6.34 -10 6 C-10 5.34 -10 4.68 -10 4 C-9.01 4 -8.02 4 -7 4 C-7 3.34 -7 2.68 -7 2 C-2.25 0 -2.25 0 0 0 Z " fill="#018F55" transform="translate(330,106)"/>
<path d="M0 0 C5.61 0 11.22 0 17 0 C12 5 12 5 9.39453125 5.3046875 C8.54246094 5.16289063 7.69039063 5.02109375 6.8125 4.875 C5.95269531 4.74867187 5.09289062 4.62234375 4.20703125 4.4921875 C2 4 2 4 0 3 C0 2.01 0 1.02 0 0 Z " fill="#04B173" transform="translate(320,80)"/>
<path d="M0 0 C0.33 0 0.66 0 1 0 C1 11.55 1 23.1 1 35 C2.485 34.505 2.485 34.505 4 34 C4 34.66 4 35.32 4 36 C6.97 36 9.94 36 13 36 C13.33 36.66 13.66 37.32 14 38 C9.38 38 4.76 38 0 38 C0 25.46 0 12.92 0 0 Z " fill="#33D299" transform="translate(204,53)"/>
<path d="M0 0 C4.23269578 1.51167706 5.66268097 4.30552799 8 8 C8.97855316 9.02099643 9.97418823 10.02649591 11 11 C9.35425434 11.02688151 7.70838587 11.04634123 6.0625 11.0625 C5.14597656 11.07410156 4.22945312 11.08570313 3.28515625 11.09765625 C1 11 1 11 0 10 C-1.20481928 2.40963855 -1.20481928 2.40963855 0 0 Z " fill="#2CC994" transform="translate(205,37)"/>
<path d="M0 0 C4.28342007 0.47593556 6.15573389 2.94761685 9 6 C9.928125 6.928125 10.85625 7.85625 11.8125 8.8125 C12.534375 9.534375 13.25625 10.25625 14 11 C13.67 11.99 13.34 12.98 13 14 C11.02090602 14.02686553 9.04171029 14.04633375 7.0625 14.0625 C5.96035156 14.07410156 4.85820312 14.08570313 3.72265625 14.09765625 C1 14 1 14 0 13 C-0.14115161 10.32941149 -0.04247107 7.67567762 0 5 C0.33 5 0.66 5 1 5 C1.33 7.31 1.66 9.62 2 12 C4.97 12 7.94 12 11 12 C10.01 11.67 9.02 11.34 8 11 C6.68359375 9.1875 6.68359375 9.1875 5.4375 7 C3.78625452 3.91497173 3.78625452 3.91497173 1 2 C0.67 2.66 0.34 3.32 0 4 C0 2.68 0 1.36 0 0 Z " fill="#3ED09F" transform="translate(204,35)"/>
<path d="M0 0 C0.66 0 1.32 0 2 0 C2.08082094 1.95766281 2.13910778 3.91626728 2.1875 5.875 C2.22230469 6.96554688 2.25710937 8.05609375 2.29296875 9.1796875 C2.19628906 10.11039063 2.09960938 11.04109375 2 12 C1.01 12.66 0.02 13.32 -1 14 C-1.33 14.99 -1.66 15.98 -2 17 C-4.06640625 18.82421875 -4.06640625 18.82421875 -6.5625 20.6875 C-7.38878906 21.31011719 -8.21507812 21.93273437 -9.06640625 22.57421875 C-10.02353516 23.27998047 -10.02353516 23.27998047 -11 24 C-11.33 23.01 -11.66 22.02 -12 21 C-10.4218833 19.26407163 -9.24518176 18.10281816 -7.0625 17.1875 C-3.52920128 15.15317649 -1.78711821 11.57423642 0 8 C0.0689472 6.62657169 0.08467708 5.24997898 0.0625 3.875 C0.041875 2.59625 0.02125 1.3175 0 0 Z " fill="#37AE8A" transform="translate(156,94)"/>
<path d="M0 0 C3.96 0 7.92 0 12 0 C10.77065985 3.68802044 9.06140622 4.72356973 6 7 C3 5.1875 3 5.1875 0 3 C0 2.01 0 1.02 0 0 Z " fill="#3DD4A2" transform="translate(205,93)"/>
<path d="M0 0 C0.66 0 1.32 0 2 0 C2 4.29 2 8.58 2 13 C8.6 13 15.2 13 22 13 C22 13.33 22 13.66 22 14 C14.74 14 7.48 14 0 14 C-1.10370043 10.6888987 -0.92673641 8.75251051 -0.5625 5.3125 C-0.46066406 4.31863281 -0.35882813 3.32476562 -0.25390625 2.30078125 C-0.17011719 1.54152344 -0.08632812 0.78226562 0 0 Z " fill="#53E6B3" transform="translate(174,93)"/>
<path d="M0 0 C3.66771845 1.83385923 5.46834996 3.25062829 8.25 6.125 C8.95640625 6.84945312 9.6628125 7.57390625 10.390625 8.3203125 C11.18726563 9.15175781 11.18726563 9.15175781 12 10 C11.01 10.33 10.02 10.66 9 11 C6.94720004 9.39881603 4.94348501 7.73223664 3 6 C2.67 6 2.34 6 2 6 C1.67 8.31 1.34 10.62 1 13 C0.67 13 0.34 13 0 13 C0 8.71 0 4.42 0 0 Z " fill="#187F5D" transform="translate(158,92)"/>
<path d="M0 0 C0.99 0.33 1.98 0.66 3 1 C2.67 1.33 2.34 1.66 2 2 C1.84285346 3.63256758 1.74914586 5.27135338 1.68359375 6.91015625 C1.64169922 7.89951172 1.59980469 8.88886719 1.55664062 9.90820312 C1.51732422 10.94912109 1.47800781 11.99003906 1.4375 13.0625 C1.39431641 14.10728516 1.35113281 15.15207031 1.30664062 16.22851562 C1.20018775 18.81886884 1.0981724 21.40932186 1 24 C2.32 23.67 3.64 23.34 5 23 C5 26 5 26 3.625 27.6875 C2 29 2 29 0 29 C0 19.43 0 9.86 0 0 Z " fill="#0D9D61" transform="translate(265,56)"/>
<path d="M0 0 C0.66 0 1.32 0 2 0 C0.86574523 3.40276432 -0.08405449 4.1105078 -2.8125 6.3125 C-5.42014252 8.50571362 -7.5213886 10.4714405 -9.3125 13.375 C-11 16 -11 16 -14 17 C-14.33 16.01 -14.66 15.02 -15 14 C-13.68 13.67 -12.36 13.34 -11 13 C-11 12.29875 -11 11.5975 -11 10.875 C-9.46498564 6.46183371 -5.93542556 4.34194036 -2 2 C-1.34 2 -0.68 2 0 2 C0 1.34 0 0.68 0 0 Z " fill="#33AC87" transform="translate(138,122)"/>
<path d="M0 0 C0.99 0 1.98 0 3 0 C2.83701416 0.69311279 2.67402832 1.38622559 2.50610352 2.1003418 C1.95476373 5.25917565 1.88714946 8.18853696 1.90234375 11.39453125 C1.90556641 12.59658203 1.90878906 13.79863281 1.91210938 15.03710938 C1.92048828 16.28298828 1.92886719 17.52886719 1.9375 18.8125 C1.94201172 20.07771484 1.94652344 21.34292969 1.95117188 22.64648438 C1.96293749 25.7643711 1.97937728 28.88216133 2 32 C1.34 32 0.68 32 0 32 C0 21.44 0 10.88 0 0 Z " fill="#0F9D64" transform="translate(265,107)"/>
<path d="M0 0 C0.99 0.33 1.98 0.66 3 1 C2.50628906 1.29648437 2.01257813 1.59296875 1.50390625 1.8984375 C-1.53679277 4.21108182 -3.63817127 6.23320675 -4.4296875 10.09814453 C-5.00403369 15.38800345 -5.03937905 20.68382849 -5 26 C-5.33 26 -5.66 26 -6 26 C-6.02903577 22.89585298 -6.0468107 19.79174091 -6.0625 16.6875 C-6.07087891 15.80642578 -6.07925781 14.92535156 -6.08789062 14.01757812 C-6.09111328 13.17001953 -6.09433594 12.32246094 -6.09765625 11.44921875 C-6.10289307 10.66893311 -6.10812988 9.88864746 -6.11352539 9.0847168 C-6 7 -6 7 -5 4 C-4.01 4 -3.02 4 -2 4 C-1.34 2.68 -0.68 1.36 0 0 Z " fill="#05AB6D" transform="translate(374,0)"/>
<path d="M0 0 C1.32 0.33 2.64 0.66 4 1 C2 3 2 3 -1.16455078 3.22705078 C-2.50817963 3.22673389 -3.8518341 3.21542181 -5.1953125 3.1953125 C-5.90275604 3.1924826 -6.61019958 3.18965271 -7.33908081 3.18673706 C-9.6012251 3.17553137 -11.86297515 3.15042679 -14.125 3.125 C-15.65754637 3.11497067 -17.19009894 3.10584474 -18.72265625 3.09765625 C-22.48192301 3.07559086 -26.24089464 3.04105896 -30 3 C-30 2.67 -30 2.34 -30 2 C-20.1 2 -10.2 2 0 2 C0 1.34 0 0.68 0 0 Z " fill="#1D8D67" transform="translate(205,105)"/>
<path d="M0 0 C3.3 0 6.6 0 10 0 C10 0.99 10 1.98 10 3 C9.01 3.495 9.01 3.495 8 4 C7.67 4.66 7.34 5.32 7 6 C4.525 5.01 4.525 5.01 2 4 C2 3.01 2 2.02 2 1 C1.34 0.67 0.68 0.34 0 0 Z " fill="#2EDCA0" transform="translate(164,93)"/>
<path d="M0 0 C0.33 0.99 0.66 1.98 1 3 C-0.9375 5.6875 -0.9375 5.6875 -3 8 C-0.36 8 2.28 8 5 8 C5 8.33 5 8.66 5 9 C0.71 9 -3.58 9 -8 9 C-2.25 2.25 -2.25 2.25 0 0 Z " fill="#3CDDAA" transform="translate(167,40)"/>
<path d="M0 0 C0 3 0 3 -1 5 C-1.598125 5.268125 -2.19625 5.53625 -2.8125 5.8125 C-5.65198628 7.35393541 -7.10192934 9.42404696 -9 12 C-9.99 11.67 -10.98 11.34 -12 11 C-8.19588166 7.08060535 -4.18423892 3.50897269 0 0 Z " fill="#197F60" transform="translate(148,115)"/>
<path d="M0 0 C0.66 0 1.32 0 2 0 C3.35064935 10.2987013 3.35064935 10.2987013 2 13 C1.34 13 0.68 13 0 13 C0 8.71 0 4.42 0 0 Z " fill="#48E6AF" transform="translate(203,93)"/>
<path d="M0 0 C0.33 0.66 0.66 1.32 1 2 C-1.97 4.31 -4.94 6.62 -8 9 C-8.33 8.01 -8.66 7.02 -9 6 C-6.45543849 3.03134491 -3.51005335 1.6380249 0 0 Z " fill="#2EA583" transform="translate(153,109)"/>
<path d="M0 0 C2.64 0 5.28 0 8 0 C7.01 1.98 6.02 3.96 5 6 C4.01 5.34 3.02 4.68 2 4 C2 3.34 2 2.68 2 2 C1.34 2 0.68 2 0 2 C0 1.34 0 0.68 0 0 Z " fill="#229672" transform="translate(208,35)"/>
<path d="M0 0 C2.475 0.495 2.475 0.495 5 1 C5 1.99 5 2.98 5 4 C5.66 4 6.32 4 7 4 C8.625 6 8.625 6 10 8 C9.67 8.66 9.34 9.32 9 10 C7.49702124 8.52386015 5.99768715 7.04400843 4.5 5.5625 C3.6646875 4.73878906 2.829375 3.91507812 1.96875 3.06640625 C0 1 0 1 0 0 Z " fill="#47D1A3" transform="translate(161,93)"/>
<path d="M0 0 C2.64 0 5.28 0 8 0 C7.34 1.32 6.68 2.64 6 4 C4.35 3.67 2.7 3.34 1 3 C0.67 2.01 0.34 1.02 0 0 Z " fill="#2DDDA2" transform="translate(205,94)"/>
<path d="M0 0 C0.99 0 1.98 0 3 0 C2.34 4.29 1.68 8.58 1 13 C0.67 13 0.34 13 0 13 C0 8.71 0 4.42 0 0 Z " fill="#39B28B" transform="translate(121,0)"/>
<path d="M0 0 C0.99 0.495 0.99 0.495 2 1 C1.01 1.495 1.01 1.495 0 2 C0 1.34 0 0.68 0 0 Z M-2 2 C-1.34 2.33 -0.68 2.66 0 3 C-0.9590625 3.804375 -0.9590625 3.804375 -1.9375 4.625 C-4.38529404 7.44367193 -4.66714612 9.33860732 -5 13 C-5.33 13 -5.66 13 -6 13 C-6.35233161 7.62694301 -6.35233161 7.62694301 -6 5 C-4 3 -4 3 -2 2 Z " fill="#01AA6D" transform="translate(109,0)"/>
<path d="M0 0 C2.64 0.33 5.28 0.66 8 1 C6.68 2.32 5.36 3.64 4 5 C2.68 4.34 1.36 3.68 0 3 C0 2.01 0 1.02 0 0 Z " fill="#33CB9A" transform="translate(124,0)"/>
<path d="M0 0 C0.66 0 1.32 0 2 0 C1.43628586 3.26954202 0.50037734 4.82575883 -2 7 C-2.66 6.01 -3.32 5.02 -4 4 C-2.68 3.67 -1.36 3.34 0 3 C0 2.01 0 1.02 0 0 Z " fill="#30A37F" transform="translate(127,132)"/>
</svg>
